<svg width="24" height="24" viewBox="0 0 24 24" fill="none" xmlns="http://www.w3.org/2000/svg">
<path d="M20.9999 11.9999C20.9999 12.1988 20.9208 12.3896 20.7802 12.5303C20.6395 12.6709 20.4488 12.7499 20.2499 12.7499H5.56017L11.0305 18.2193C11.1002 18.289 11.1554 18.3717 11.1932 18.4628C11.2309 18.5538 11.2503 18.6514 11.2503 18.7499C11.2503 18.8485 11.2309 18.9461 11.1932 19.0371C11.1554 19.1281 11.1002 19.2109 11.0305 19.2806C10.9608 19.3502 10.8781 19.4055 10.787 19.4432C10.696 19.4809 10.5984 19.5003 10.4999 19.5003C10.4013 19.5003 10.3037 19.4809 10.2127 19.4432C10.1216 19.4055 10.0389 19.3502 9.96923 19.2806L3.21923 12.5306C3.1495 12.4609 3.09418 12.3782 3.05644 12.2871C3.01869 12.1961 2.99927 12.0985 2.99927 11.9999C2.99927 11.9014 3.01869 11.8038 3.05644 11.7127C3.09418 11.6217 3.1495 11.539 3.21923 11.4693L9.96923 4.7193C10.11 4.57857 10.3008 4.49951 10.4999 4.49951C10.6989 4.49951 10.8898 4.57857 11.0305 4.7193C11.1712 4.86003 11.2503 5.05091 11.2503 5.24993C11.2503 5.44895 11.1712 5.63982 11.0305 5.78055L5.56017 11.2499H20.2499C20.4488 11.2499 20.6395 11.3289 20.7802 11.4696C20.9208 11.6103 20.9999 11.801 20.9999 11.9999Z" fill="#202020"/>
</svg>
